<?xml version="1.0" encoding="UTF-8"?>
<svg version="1.1" xmlns="http://www.w3.org/2000/svg" width="700" height="400">
<path d="M0 0 C1.94357136 -0.00187013 3.88714234 -0.00417164 5.83071274 -0.00686532 C11.15265598 -0.01296481 16.47458347 -0.01285191 21.79652941 -0.01167095 C27.54383944 -0.01146647 33.29114447 -0.01699022 39.03845215 -0.02172852 C50.29198831 -0.03002569 61.54551924 -0.03278294 72.79905821 -0.03334089 C81.95005382 -0.03381654 91.1010477 -0.0358737 100.25204277 -0.03904152 C121.99258839 -0.04641395 143.73313253 -0.05256661 165.47367954 -0.05204296 C166.16840948 -0.05202738 166.86313941 -0.0520118 167.57892177 -0.05199575 C171.09977061 -0.05191265 174.62061945 -0.05181361 178.14146829 -0.05171105 C178.84066853 -0.0516911 179.53986876 -0.05167115 180.26025688 -0.05165061 C181.67420997 -0.05161017 183.08816306 -0.05156837 184.50211615 -0.05152521 C206.48993769 -0.05091277 228.47774379 -0.05841464 250.46556091 -0.07209778 C275.19357748 -0.08747997 299.92158352 -0.09605004 324.64960521 -0.09513456 C337.73307079 -0.094803 350.81651897 -0.09753171 363.89998055 -0.10831261 C375.04104179 -0.11743432 386.18207774 -0.11957917 397.32314111 -0.11280318 C403.00228747 -0.1095463 408.68138534 -0.10945114 414.36052704 -0.11815643 C419.57000011 -0.12605931 424.77938656 -0.12455159 429.98885762 -0.1158723 C431.86299588 -0.11434561 433.73714073 -0.11612175 435.61127121 -0.12173238 C444.66347771 -0.1470147 453.60774444 0.04276325 462.61434841 1.0124464 C463.68323072 1.12636266 463.68323072 1.12636266 464.77370662 1.24258025 C488.29542095 4.07412686 509.72258732 17.19149274 524.87937927 35.13371277 C538.40353711 52.71968179 544.9284178 73.01811254 545.09031677 95.07902527 C545.11839706 97.23007439 545.14706159 99.38111595 545.17625427 101.53215027 C545.21734557 104.88891794 545.25427545 108.24554622 545.28074646 111.60246277 C544.89504098 136.41253692 544.89504098 136.41253692 556.94187927 157.16886902 C559.80742912 159.73416823 562.67715176 161.99889442 565.87937927 164.13371277 C565.87937927 164.79371277 565.87937927 165.45371277 565.87937927 166.13371277 C551.49642254 166.70333482 540.11632339 166.16669858 528.87937927 156.13371277 C526.48107438 153.85898465 524.15183034 151.53398921 521.87937927 149.13371277 C521.11367615 149.89554871 521.11367615 149.89554871 520.33250427 150.67277527 C505.04228455 165.14968543 488.04308422 166.58588711 468.02383423 166.5146637 C465.90401812 166.51812365 463.78420381 166.52289048 461.66439325 166.52884543 C455.86000642 166.5413389 450.05576807 166.53519245 444.2513808 166.52588677 C437.98334248 166.51908977 431.71532942 166.52958084 425.44729614 166.53782654 C413.88428684 166.55038971 402.32133749 166.5493092 390.75832671 166.54109213 C380.07333898 166.53353662 369.38836853 166.53157947 358.70337868 166.53516006 C357.99379818 166.53538922 357.28421768 166.53561838 356.55313474 166.53585447 C353.6724682 166.53678854 350.79180166 166.53774375 347.91113513 166.53873377 C320.90124117 166.54790571 293.89137721 166.53959895 266.88148788 166.52344307 C242.9064037 166.50921145 218.93136733 166.51047685 194.95628357 166.52482605 C167.99938213 166.54090607 141.0425072 166.54725055 114.08560163 166.53798926 C111.20934348 166.53702716 108.33308532 166.53608864 105.45682716 166.53516006 C104.74865717 166.53492283 104.04048717 166.5346856 103.31085747 166.53444118 C92.63698147 166.53103496 81.96312467 166.53500811 71.28925133 166.54259872 C59.14496569 166.55119212 47.0007508 166.54871149 34.85646888 166.53275649 C28.66325475 166.52488741 22.47013748 166.52175896 16.27692413 166.53170395 C10.60130332 166.54067972 4.92586863 166.53567049 -0.74973544 166.51977129 C-2.79673455 166.51643564 -4.84374956 166.51808999 -6.89073835 166.52539866 C-33.20971401 166.61211916 -56.3498588 160.6836897 -76.12062073 142.13371277 C-93.96712066 123.38909352 -99.69846441 101.99373919 -99.39015198 76.68058777 C-98.79015178 55.88452193 -87.67731368 35.62859234 -72.77687073 21.39152527 C-51.12921799 2.99102044 -27.48367724 -0.02511454 0 0 Z " fill="#D93A59" transform="translate(120.12062072753906,180.8662872314453)"/>
<path d="M0 0 C1.28554055 -0.00445668 1.28554055 -0.00445668 2.59705162 -0.0090034 C5.4562313 -0.01764437 8.31536887 -0.01919475 11.17456055 -0.02069092 C13.23004749 -0.02532245 15.28553358 -0.03034756 17.34101868 -0.03573608 C22.91787943 -0.04883205 28.49472815 -0.05529987 34.07160187 -0.05974674 C37.56081808 -0.06268272 41.05003104 -0.06678857 44.53924561 -0.07125092 C55.47052367 -0.08492006 66.40179427 -0.0945889 77.33308029 -0.09845281 C89.92440026 -0.10292866 102.51561141 -0.12045711 115.10689831 -0.1494534 C124.85666466 -0.17112141 134.60640052 -0.18115986 144.35619068 -0.18249393 C150.17098493 -0.18353852 155.9856768 -0.18937228 161.80044556 -0.20731354 C167.27685546 -0.22388231 172.75308701 -0.22590723 178.22951317 -0.21717453 C180.22924467 -0.21640878 182.22898611 -0.22068517 184.22869301 -0.23063278 C209.41835478 -0.34849707 231.80546778 4.97156775 250.4284668 23.19512939 C266.90843441 40.03262851 273.94969177 60.13329718 273.71728516 83.27667236 C273.13606629 102.43716688 266.261448 119.95837467 253.2487793 134.14044189 C252.25297852 135.27352783 252.25297852 135.27352783 251.23706055 136.42950439 C237.89088388 150.78712883 218.70043191 159.62077384 199.13580132 160.42028618 C192.94392741 160.57479947 186.75243049 160.55799385 180.55908203 160.54449463 C178.18404826 160.55020561 175.80901723 160.55717268 173.43399048 160.56529236 C167.01882203 160.58315542 160.60379087 160.58206863 154.18860507 160.57634997 C150.17455319 160.57327596 146.16052067 160.57625943 142.14647102 160.58082771 C141.14332724 160.58195035 141.14332724 160.58195035 140.11991792 160.58309566 C138.76086289 160.5846273 137.40180788 160.58616565 136.04275287 160.58771063 C123.33450815 160.60139856 110.62632522 160.5960234 97.91808195 160.58452541 C86.31704476 160.57458951 74.71616699 160.58754642 63.11515438 160.61145961 C51.16927075 160.63589609 39.22346124 160.64544779 27.27755314 160.63880688 C20.58430478 160.63532569 13.89119701 160.63781332 7.19796562 160.65505791 C0.90474605 160.67056634 -5.38816967 160.66652793 -11.68137741 160.64775276 C-13.98349768 160.64407815 -16.28564067 160.64714222 -18.58773994 160.65763855 C-39.23747766 160.74456485 -55.13116325 157.69549543 -70.7512207 143.14044189 C-70.9987207 143.89196533 -71.2462207 144.64348877 -71.5012207 145.41778564 C-74.27175847 151.45236321 -80.75614792 154.94120492 -86.6887207 157.45294189 C-94.71074308 160.34633387 -102.24973345 161.41468342 -110.7512207 161.14044189 C-110.7512207 157.14044189 -110.7512207 157.14044189 -109.2121582 155.20294189 C-108.52379883 154.52231689 -107.83543945 153.84169189 -107.1262207 153.14044189 C-92.31417639 137.07225248 -90.98366437 113.87848189 -90.3137207 93.07794189 C-89.41540176 66.7606756 -81.22936557 44.84256427 -62.7512207 26.14044189 C-62.16856445 25.48559814 -61.5859082 24.83075439 -60.9855957 24.15606689 C-46.0518196 7.71382855 -21.58803848 -0.023667 0 0 Z " fill="#F7E72D" transform="translate(250.751220703125,3.85955810546875)"/>
<path d="M0 0 C8.25 0 16.5 0 25 0 C26.31604316 5.92219424 27.37311055 11.40560028 27.9375 17.375 C28.56942225 23.51685193 29.3629436 29.59704123 30.375 35.6875 C32.64376659 49.39984189 34.26803064 63.21172442 36 77 C39.76482221 51.34619672 43.50913827 25.69274232 47 0 C55.58 0 64.16 0 73 0 C73 36.96 73 73.92 73 112 C67.39 112 61.78 112 56 112 C55.67 86.92 55.34 61.84 55 36 C51.42200374 59.88884508 51.42200374 59.88884508 47.84985352 83.77856445 C47.15612793 88.39880371 47.15612793 88.39880371 46.83067322 90.56169128 C46.60389691 92.07224495 46.37818223 93.58295822 46.15330505 95.09379578 C45.81246262 97.38233024 45.46825427 99.67033552 45.12329102 101.95825195 C44.93009781 103.24842728 44.7369046 104.5386026 44.53785706 105.86787415 C44 109 44 109 43 112 C38.05 112 33.1 112 28 112 C26.58276176 102.60292024 25.16575376 93.20580584 23.74914646 83.80863094 C23.09128931 79.44474608 22.43333289 75.08087623 21.77514648 70.71704102 C21.13948738 66.50253874 20.50409312 62.28799661 19.86887932 58.0734272 C19.62697642 56.46874138 19.3849795 54.86406973 19.14288521 53.25941277 C18.80276849 51.00492962 18.4629918 48.75039546 18.12329102 46.49584961 C17.93009781 45.21455673 17.7369046 43.93326385 17.53785706 42.61314392 C17.01152826 39.07744298 16.50553344 35.53873411 16 32 C15.67 58.4 15.34 84.8 15 112 C10.05 112 5.1 112 0 112 C0 75.04 0 38.08 0 0 Z " fill="#F7E62D" transform="translate(98,208)"/>
<path d="M0 0 C2.71314793 1.75389688 4.77974647 3.75121827 6.8671875 6.20703125 C7.4240625 6.82578125 7.9809375 7.44453125 8.5546875 8.08203125 C11.60462117 13.02001909 12.12040133 18.39632421 12.15771484 24.08520508 C12.16443207 24.73340714 12.17114929 25.38160919 12.17807007 26.04945374 C12.19691157 28.17107014 12.2009672 30.29236787 12.203125 32.4140625 C12.2095628 33.90467961 12.21629187 35.39529548 12.22329712 36.88591003 C12.23523546 40.00347825 12.23898153 43.12093595 12.23779297 46.23852539 C12.23759003 50.20934789 12.26488106 54.17945272 12.29933739 58.15010548 C12.3217098 61.22758663 12.32562736 64.30489791 12.32457352 67.38245201 C12.32691437 68.84511473 12.3356513 70.30778323 12.35123825 71.77036476 C12.44273198 81.24228869 12.12215602 90.02128837 5.8671875 97.64453125 C5.2071875 98.16015625 4.5471875 98.67578125 3.8671875 99.20703125 C3.2071875 99.74328125 2.5471875 100.27953125 1.8671875 100.83203125 C-3.1373112 104.27262411 -6.89347711 104.57224475 -12.8828125 104.58203125 C-13.65625 104.60652344 -14.4296875 104.63101563 -15.2265625 104.65625 C-21.94306758 104.69005791 -27.20270409 102.95047252 -32.15625 98.3125 C-32.60226562 97.67957031 -33.04828125 97.04664062 -33.5078125 96.39453125 C-33.96929687 95.76933594 -34.43078125 95.14414063 -34.90625 94.5 C-37.70622077 89.26565975 -38.38713891 84.00734819 -38.43920898 78.14526367 C-38.4475325 77.47755447 -38.45585602 76.80984528 -38.46443176 76.12190247 C-38.48833872 73.93537399 -38.49727988 71.74914492 -38.50390625 69.5625 C-38.51288733 68.02704284 -38.52200941 66.49158651 -38.53126526 64.95613098 C-38.54770544 61.7444141 -38.55544624 58.53280084 -38.55834961 55.32104492 C-38.5637281 51.22902707 -38.60140632 47.1379988 -38.64709377 43.04625988 C-38.6770065 39.87612959 -38.68407622 36.70623357 -38.68507576 33.5359745 C-38.68925 32.02863343 -38.70157049 30.52128983 -38.72259331 29.01408958 C-38.84554928 19.43715043 -38.32272801 11.11105879 -31.72532654 3.60588074 C-22.96313631 -4.37315599 -10.42471893 -5.40328838 0 0 Z " fill="#D93C59" transform="translate(330.1328125,30.79296875)"/>
<path d="M0 0 C7.92 0 15.84 0 24 0 C24.80325232 4.19042956 25.60385488 8.38122513 26.39868164 12.57324219 C26.66780353 13.98887095 26.93824024 15.4042506 27.21020508 16.81933594 C28.94645228 25.85946106 30.47458306 34.90789111 31.80729675 44.01629639 C32.80094197 50.77354912 33.88791841 57.51258683 35.0078125 64.25 C35.18062241 65.2931134 35.35343231 66.33622681 35.53147888 67.41094971 C36.24166927 71.69392507 36.95338979 75.9766265 37.67138672 80.25830078 C38.20453309 83.44232946 38.73159931 86.62731915 39.2578125 89.8125 C39.41823029 90.75963867 39.57864807 91.70677734 39.743927 92.68261719 C40.8545226 99.44301003 41.49583897 106.16707592 42 113 C36.06 113 30.12 113 24 113 C23.505 108.9471875 23.505 108.9471875 23 104.8125 C22.89558594 103.97050049 22.79117188 103.12850098 22.68359375 102.26098633 C22.60238281 101.58318115 22.52117187 100.90537598 22.4375 100.20703125 C22.35371094 99.5210083 22.26992188 98.83498535 22.18359375 98.12817383 C21.97930627 95.76012333 22 93.37684592 22 91 C15.07 91 8.14 91 1 91 C1 93.64 1 96.28 1 99 C0.19362576 103.72304911 -0.92168797 108.32731452 -2 113 C-7.28 113 -12.56 113 -18 113 C-17.4146086 105.90919344 -16.61231022 98.94409007 -15.43359375 91.9296875 C-15.27899689 90.98958328 -15.12440002 90.04947906 -14.96511841 89.08088684 C-14.45957695 86.01163991 -13.94858553 82.94332816 -13.4375 79.875 C-13.08220717 77.72508131 -12.7273148 75.5750964 -12.37280273 73.42504883 C-11.81973362 70.07169323 -11.26626827 66.71840662 -10.71125793 63.3653717 C-9.3685948 55.25240954 -8.04304975 47.13677944 -6.7265625 39.01953125 C-6.36011309 36.76253163 -5.99365809 34.50553292 -5.62719727 32.24853516 C-5.09687975 28.98177927 -4.56694402 25.71496409 -4.03829956 22.44793701 C-3.54923944 19.42727329 -3.05806058 16.40696115 -2.56640625 13.38671875 C-2.42196075 12.49104691 -2.27751526 11.59537506 -2.12869263 10.67256165 C-1.99413666 9.84822128 -1.85958069 9.02388092 -1.72094727 8.17456055 C-1.60517838 7.46075729 -1.48940948 6.74695404 -1.37013245 6.01152039 C-0.99820168 3.99022686 -0.49846588 1.99386353 0 0 Z " fill="#F7E42D" transform="translate(376,207)"/>
<path d="M0 0 C5.96786686 3.84595864 9.22440881 9.20778219 11 16 C11.23001903 19.29705787 11.18966578 22.57207106 11.125 25.875 C11.11597656 26.75414062 11.10695313 27.63328125 11.09765625 28.5390625 C11.07424577 30.6928271 11.0383801 32.84645014 11 35 C5.39 35 -0.22 35 -6 35 C-6.25 26.75 -6.25 26.75 -6.29785156 24.17089844 C-6.46306089 20.49977321 -6.61969574 18.52139795 -8.83203125 15.48828125 C-12.07297771 13.2634153 -14.16357561 13.39424878 -18 14 C-21.31821289 16.59266977 -22.82442077 18.07809693 -23.62145996 22.26306152 C-23.61940552 23.49818481 -23.61735107 24.73330811 -23.61523438 26.00585938 C-23.62078339 26.69106155 -23.6263324 27.37626373 -23.63204956 28.08222961 C-23.64381614 30.33679165 -23.61960524 32.58932999 -23.59375 34.84375 C-23.59203798 36.41646228 -23.59210551 37.98917742 -23.59387207 39.56188965 C-23.59222055 42.85387571 -23.5735546 46.14517938 -23.54199219 49.43701172 C-23.50231454 53.6504726 -23.49794786 57.86304027 -23.50545502 62.07665253 C-23.50852888 65.32297913 -23.49638951 68.56910602 -23.47932434 71.81538391 C-23.47230774 73.36866503 -23.46916818 74.92196877 -23.47001648 76.4752655 C-23.46821273 78.64863763 -23.44678389 80.82095213 -23.41992188 82.99414062 C-23.41150269 84.22926392 -23.4030835 85.46438721 -23.39440918 86.73693848 C-22.96719818 90.27137897 -22.12685777 92.17355429 -20 95 C-16.90826248 96.54586876 -14.40570448 96.29359521 -11 96 C-8.05115364 93.82751212 -7.11026477 92.61089446 -6.45410156 88.97558594 C-6.4331543 87.82348633 -6.41220703 86.67138672 -6.390625 85.484375 C-6.35839844 84.23398437 -6.32617188 82.98359375 -6.29296875 81.6953125 C-6.27878906 80.39335937 -6.26460938 79.09140625 -6.25 77.75 C-6.22035156 76.43257813 -6.19070313 75.11515625 -6.16015625 73.7578125 C-6.08944612 70.50514657 -6.03675214 67.25319807 -6 64 C-8.64 64 -11.28 64 -14 64 C-14 58.72 -14 53.44 -14 48 C-5.75 48 2.5 48 11 48 C11.09224209 54.22634125 11.17175675 60.45027562 11.21972656 66.67675781 C11.23974016 68.79109772 11.26695972 70.90538299 11.30175781 73.01953125 C11.35072941 76.07305448 11.37307182 79.12584078 11.390625 82.1796875 C11.41127014 83.11239471 11.43191528 84.04510193 11.45318604 85.006073 C11.45582168 92.85897015 9.22656314 98.99218635 5.4375 105.8125 C-1.35333253 111.90683689 -8.95094245 113.7490393 -17.91796875 113.35546875 C-24.86590074 112.55412298 -31.41574661 110.62069329 -36 105 C-40.42961022 97.71335121 -42.10814068 91.6025815 -42.17700195 83.08935547 C-42.18357315 82.41379105 -42.19014435 81.73822662 -42.19691467 81.04219055 C-42.21654422 78.81718815 -42.2282893 76.59225305 -42.23828125 74.3671875 C-42.24235678 73.60219059 -42.2464323 72.83719368 -42.25063133 72.04901505 C-42.27145173 67.99687221 -42.28576874 63.94476279 -42.29516602 59.89257812 C-42.30620015 55.7335209 -42.34057645 51.57500312 -42.38033772 47.41613579 C-42.40664339 44.19537447 -42.41487029 40.97473881 -42.41844749 37.75387955 C-42.42328038 36.2222544 -42.43479877 34.69063361 -42.45348549 33.15911484 C-42.58136261 21.9806858 -41.93863431 10.90238057 -33.73828125 2.4375 C-24.46331461 -5.23258477 -10.55453387 -5.25471451 0 0 Z " fill="#F7E42D" transform="translate(467,209)"/>
<path d="M0 0 C6.33245156 3.41713424 10.61600339 8.52077271 12.9375 15.3125 C14.32242442 20.74241709 14.21447937 25.92353644 14 31.5 C8.39 31.5 2.78 31.5 -3 31.5 C-3.061875 29.788125 -3.12375 28.07625 -3.1875 26.3125 C-3.55963298 22.30173342 -3.85431372 20.71228572 -6.1875 17.3125 C-9.53782585 15.15340112 -11.09211332 14.75168127 -15 15.5 C-18.74459493 18.43495278 -19.79845207 20.85402526 -20.375 25.5625 C-19.26644842 37.20229163 -10.66618052 44.28976981 -2.57739258 51.82006836 C6.46461559 60.29292577 13.75951975 68.73406174 14.2734375 81.57421875 C14.58579819 91.64376948 14.28925814 99.37076041 7.42578125 107.32421875 C1.47131212 113.05660978 -5.35647713 114.63915527 -13.4375 115 C-21.42966193 114.79435373 -27.01488839 112.22553669 -32.875 106.875 C-38.55819134 97.84875493 -39.4542118 90.06042444 -39 79.5 C-33.39 79.5 -27.78 79.5 -22 79.5 C-21.938125 81.541875 -21.87625 83.58375 -21.8125 85.6875 C-21.46783384 90.02179497 -21.25241209 92.10653409 -18.875 95.8125 C-15.29075697 97.91629482 -13.09555939 97.95506215 -9 97.5 C-7.515 97.005 -7.515 97.005 -6 96.5 C-4.85669487 93.07008462 -4.79618349 90.3013584 -4.75 86.6875 C-4.71132813 84.88345703 -4.71132813 84.88345703 -4.671875 83.04296875 C-5.62588611 72.74192019 -14.76506272 65.36480401 -22.125 58.9375 C-30.84484638 51.21962355 -37.53393444 42.92554392 -38.4140625 30.9921875 C-38.79970572 22.1573725 -38.94288658 13.62860673 -33 6.5 C-24.15150634 -1.97385985 -11.5852962 -4.51427059 0 0 Z " fill="#F7E42D" transform="translate(584,207.5)"/>
<path d="M0 0 C4.82463253 3.02094855 8.56629117 7.70763075 10.6640625 13.01953125 C11.77954282 18.65413697 11.27228247 24.63334983 11.12109375 30.328125 C5.84109375 30.328125 0.56109375 30.328125 -4.87890625 30.328125 C-5.26953125 27.04036458 -5.66015625 23.75260417 -6.05078125 20.46484375 C-6.61442839 17.28697166 -6.61442839 17.28697166 -8.734375 15.42578125 C-11.85076059 13.83069136 -14.43358607 14.07755626 -17.87890625 14.328125 C-18.86890625 14.658125 -19.85890625 14.988125 -20.87890625 15.328125 C-22.97087019 20.85776067 -22.8462431 27.95003531 -20.44140625 33.328125 C-16.07897852 40.95851979 -9.41943476 46.9846376 -2.79296875 52.62109375 C5.3999029 59.92779765 11.42771164 68.86156449 12.34375 80.046875 C12.61854129 89.31809434 11.47302837 99.14040951 5.12109375 106.328125 C-3.69319315 113.22343431 -10.71849777 114.21114633 -21.87890625 113.328125 C-27.70570899 111.80087186 -32.10508282 109.07236017 -35.87890625 104.328125 C-39.51246875 98.04637287 -41.02914188 92.92423526 -40.94140625 85.640625 C-40.92078125 83.2275 -40.90015625 80.814375 -40.87890625 78.328125 C-35.26890625 78.328125 -29.65890625 78.328125 -23.87890625 78.328125 C-23.65104167 81.58333333 -23.42317708 84.83854167 -23.1953125 88.09375 C-22.88654257 91.79804377 -22.88654257 91.79804377 -21.87890625 95.328125 C-18.13002041 96.57775361 -14.80146742 96.79490159 -10.87890625 96.328125 C-8.20459136 94.51649233 -7.91970266 93.45051423 -6.87890625 90.328125 C-6.03790882 81.79406909 -7.24562525 76.0927821 -12.421875 69.3046875 C-15.29217114 65.87609577 -18.35022355 62.84828937 -21.75390625 59.953125 C-30.37141132 52.57386337 -37.61356433 44.51820734 -40.69140625 33.390625 C-40.75328125 32.38 -40.81515625 31.369375 -40.87890625 30.328125 C-40.92917969 29.51730469 -40.97945313 28.70648438 -41.03125 27.87109375 C-41.33186131 19.27361019 -40.22598572 11.82179088 -34.75390625 4.953125 C-25.58527509 -4.463307 -11.74116542 -5.47535465 0 0 Z " fill="#F7E52D" transform="translate(340.87890625,208.671875)"/>
<path d="M0 0 C4.68977125 3.93303534 7.88116221 8.9659261 9 15 C9.22809845 19.69882815 9.135876 24.28963217 9 29 C3.72 29 -1.56 29 -7 29 C-7.390625 25.71223958 -7.78125 22.42447917 -8.171875 19.13671875 C-8.73316608 15.9582453 -8.73316608 15.9582453 -10.859375 14.11328125 C-14.10762574 12.42395377 -16.40630833 12.48661548 -20 13 C-22.79607398 15.15082614 -23.79882219 16.79085915 -24.37890625 20.27734375 C-24.78997843 28.88333882 -21.72974053 34.17666064 -16.25 40.5625 C-13.63397879 43.39652298 -10.93405842 45.99911949 -8 48.5 C2.12799651 57.13272144 9.09732876 66.46883553 10.2578125 80.0078125 C10.57432532 88.93347412 9.15440627 97.1094915 3.75 104.4375 C-3.34116433 111.04517585 -10.95486365 112.35931227 -20.41015625 112.28125 C-26.72287365 111.78667366 -30.97720853 109.6631841 -35.8125 105.6875 C-41.4448119 98.76780252 -43.1702486 93.08729225 -43.0625 84.25 C-43.041875 81.8575 -43.02125 79.465 -43 77 C-37.39 77 -31.78 77 -26 77 C-25.65820312 82.32226562 -25.65820312 82.32226562 -25.31640625 87.64453125 C-25.12815453 90.99181893 -25.12815453 90.99181893 -24 94 C-17.22172588 95.37463613 -17.22172588 95.37463613 -10.875 93.25 C-7.79318191 87.90818197 -8.34054746 82.80399989 -9.37109375 76.859375 C-11.74548542 68.80281844 -18.86696436 62.72696916 -25.0625 57.4375 C-33.55941429 50.15926665 -40.96102004 42.22499824 -42.26611328 30.63720703 C-42.44566539 28.0039428 -42.52959919 25.3890806 -42.5625 22.75 C-42.57732422 21.91041748 -42.59214844 21.07083496 -42.60742188 20.20581055 C-42.49488548 13.42482277 -40.71857792 8.22553884 -36.32421875 3.01171875 C-25.80661515 -5.49775051 -11.97222311 -7.47437133 0 0 Z " fill="#F7E52D" transform="translate(283,210)"/>
<path d="M0 0 C16.17 0 32.34 0 49 0 C49 5.61 49 11.22 49 17 C38.77 17 28.54 17 18 17 C18 26.57 18 36.14 18 46 C25.92 46 33.84 46 42 46 C42 51.28 42 56.56 42 62 C34.08 62 26.16 62 18 62 C18 73.55 18 85.1 18 97 C28.23 97 38.46 97 49 97 C49 102.28 49 107.56 49 113 C32.83 113 16.66 113 0 113 C0 75.71 0 38.42 0 0 Z " fill="#F7E32E" transform="translate(184,207)"/>
<path d="M0 0 C15.84 0 31.68 0 48 0 C48 5.28 48 10.56 48 16 C38.1 16 28.2 16 18 16 C18 25.57 18 35.14 18 45 C25.92 45 33.84 45 42 45 C42 50.61 42 56.22 42 62 C34.08 62 26.16 62 18 62 C18 73.22 18 84.44 18 96 C27.9 96 37.8 96 48 96 C48 101.28 48 106.56 48 112 C32.16 112 16.32 112 0 112 C0 75.04 0 38.08 0 0 Z " fill="#F7E32E" transform="translate(490,208)"/>
<path d="M0 0 C6.18629726 3.71618926 8.93301798 8.81407721 10.734375 15.671875 C11.47238536 19.94224265 11.37676251 23.99142696 11.19140625 28.31640625 C5.91140625 28.31640625 0.63140625 28.31640625 -4.80859375 28.31640625 C-4.89109375 26.58390625 -4.97359375 24.85140625 -5.05859375 23.06640625 C-5.39064358 19.57988305 -5.60650233 17.65063437 -7.43359375 14.62890625 C-10.78524238 12.77667938 -13.04625396 12.76915683 -16.80859375 13.31640625 C-18.97072276 15.48352863 -19.73896735 16.86451725 -20.20703125 19.90234375 C-20.11757678 30.54742601 -16.10825294 35.85976514 -8.80859375 43.31640625 C-7.47061358 44.52211462 -6.11696592 45.71073113 -4.74609375 46.87890625 C3.11203921 53.59459945 9.17077887 60.93000381 11.19140625 71.31640625 C11.84652621 79.84370534 11.92445086 87.92020005 7.19140625 95.31640625 C2.31243261 100.78615332 -2.33834362 103.98837266 -9.734375 104.6875 C-23.93596597 105.08194392 -23.93596597 105.08194392 -29.37109375 100.7265625 C-29.84546875 100.26121094 -30.31984375 99.79585938 -30.80859375 99.31640625 C-31.57171875 98.57390625 -32.33484375 97.83140625 -33.12109375 97.06640625 C-38.07042577 89.00082814 -38.10340036 81.65194898 -37.80859375 72.31640625 C-32.52859375 72.31640625 -27.24859375 72.31640625 -21.80859375 72.31640625 C-21.67838542 75.86458333 -21.54817708 79.41276042 -21.41796875 82.9609375 C-21.1164769 86.33935518 -21.1164769 86.33935518 -18.984375 88.2734375 C-15.65612239 89.86884764 -13.31102633 89.20793454 -9.80859375 88.31640625 C-8.01017997 87.21671547 -8.01017997 87.21671547 -6.80859375 85.31640625 C-5.963264 79.68087459 -5.7076202 73.40984515 -8.55859375 68.31640625 C-9.30109375 67.32640625 -10.04359375 66.33640625 -10.80859375 65.31640625 C-11.67484375 64.07890625 -11.67484375 64.07890625 -12.55859375 62.81640625 C-15.09589329 59.99718454 -17.85126973 57.6039128 -20.72265625 55.1328125 C-29.82666956 47.20516046 -36.86663878 38.56364707 -38.12890625 26.171875 C-38.44425463 17.14239963 -36.52795235 11.43429213 -31.62109375 4.00390625 C-22.85375315 -4.37377477 -10.80690292 -4.9784609 0 0 Z " fill="#D93C59" transform="translate(387.80859375,30.68359375)"/>
<path d="M0 0 C5.61 0 11.22 0 17 0 C17 29.37 17 58.74 17 89 C25.91 89 34.82 89 44 89 C44 93.95 44 98.9 44 104 C29.48 104 14.96 104 0 104 C0 69.68 0 35.36 0 0 Z " fill="#D93E58" transform="translate(242,30)"/>
<path d="M0 0 C16.5 0 33 0 50 0 C50 4.62 50 9.24 50 14 C44.39 14 38.78 14 33 14 C33 43.7 33 73.4 33 104 C27.72 104 22.44 104 17 104 C17 74.63 17 45.26 17 15 C11.39 15 5.78 15 0 15 C0 10.05 0 5.1 0 0 Z " fill="#D93959" transform="translate(404,30)"/>
<path d="M0 0 C4.68124839 0.55540235 5.78460572 1.79871959 8.6875 5.4375 C9.31568909 8.59339905 9.31568909 8.59339905 9.31860352 12.18383789 C9.32575882 12.84138565 9.33291412 13.49893341 9.34028625 14.17640686 C9.35712244 16.33837492 9.33780707 18.49825435 9.31640625 20.66015625 C9.31723534 22.16800609 9.31969624 23.67585585 9.32371521 25.18370056 C9.32656955 28.33864657 9.31190726 31.49288119 9.28442383 34.64770508 C9.25031114 38.68878547 9.25637174 42.7285967 9.2750864 46.7697382 C9.28566066 49.88136857 9.27671545 52.9927042 9.26170158 56.10430717 C9.25652433 57.59422365 9.25699607 59.08417097 9.26324654 60.57408333 C9.26870558 62.6569134 9.24830792 64.73793302 9.22094727 66.82055664 C9.21474869 68.00460587 9.20855011 69.18865509 9.2021637 70.40858459 C8.58515078 74.03984894 7.56799295 75.21550684 4.6875 77.4375 C2.46875 78.0390625 2.46875 78.0390625 0.1875 78.0625 C-0.5653125 78.09601563 -1.318125 78.12953125 -2.09375 78.1640625 C-4.79818442 77.27845545 -5.9601639 76.02099087 -7.46670532 73.63586426 C-9.4723516 68.42284838 -8.85775974 62.53810164 -8.80859375 57.02734375 C-8.80874889 55.61300075 -8.81024027 54.19865733 -8.81300354 52.78431702 C-8.81438429 49.82794273 -8.80188319 46.87205552 -8.77905273 43.91577148 C-8.75064229 40.13392376 -8.75341647 36.35288301 -8.76614285 32.5709753 C-8.77310993 29.65321505 -8.76529957 26.7356401 -8.75288582 23.81790352 C-8.74838311 22.42370884 -8.74802418 21.02949419 -8.75195122 19.63529778 C-8.75487387 17.68513571 -8.73615901 15.7349778 -8.71655273 13.78491211 C-8.71114975 12.67715927 -8.70574677 11.56940643 -8.70018005 10.42808533 C-8.00368044 5.05524885 -5.5596028 0.73428716 0 0 Z " fill="#F7E32E" transform="translate(316.3125,42.5625)"/>
<path d="M0 0 C0.33 0 0.66 0 1 0 C2.62406579 9.21574894 3.81292345 18.43543828 4.85546875 27.73242188 C5.54864314 33.73620648 6.41904242 39.64549143 7.60302734 45.57324219 C8.17908604 49.09478181 8.13435276 52.43965178 8 56 C3.05 56 -1.9 56 -7 56 C-7.15034517 49.70527289 -6.57779932 43.71265033 -5.72265625 37.48046875 C-5.59185165 36.50008133 -5.46104706 35.51969391 -5.32627869 34.50959778 C-5.05050418 32.4511304 -4.7721885 30.39300202 -4.49145508 28.33520508 C-4.0615685 25.18066455 -3.64052503 22.02503475 -3.22070312 18.86914062 C-2.951039 16.86451356 -2.68087434 14.85995375 -2.41015625 12.85546875 C-2.28407486 11.91172897 -2.15799347 10.9679892 -2.02809143 9.99565125 C-1.90804245 9.12076553 -1.78799347 8.24587982 -1.66430664 7.34448242 C-1.5599379 6.57585373 -1.45556915 5.80722504 -1.34803772 5.01530457 C-1 3 -1 3 0 0 Z " fill="#DA3F58" transform="translate(387,227)"/>
<path d="M0 0 C0.33 0 0.66 0 1 0 C1.33 2.97 1.66 5.94 2 9 C1.01 9 0.02 9 -1 9 C-0.67 6.03 -0.34 3.06 0 0 Z " fill="#E26E4C" transform="translate(387,227)"/>
</svg>
