<?xml version="1.0" encoding="utf-8"?>

<!-- Uploaded to: SVG Repo, www.svgrepo.com, Generator: SVG Repo Mixer Tools -->
<svg width="800px" height="800px" viewBox="0 0 246 246" fill="none" xmlns="http://www.w3.org/2000/svg">
<g clip-path="url(#clip0_397_3105)">
<g filter="url(#filter0_iii_397_3105)">
<path d="M0 115C0 51.4872 51.4873 0 115 0H127C192.722 0 246 53.2781 246 119V127C246 192.722 192.722 246 127 246H123C55.069 246 0 190.931 0 123V115Z" fill="url(#paint0_radial_397_3105)"/>
</g>
<g filter="url(#filter1_i_397_3105)">
<path d="M101.54 99C105.66 99 109.081 102.378 108.197 106.402C106.794 112.789 103.591 118.699 98.8952 123.395C92.4252 129.865 83.65 133.5 74.5 133.5C65.35 133.5 56.5748 129.865 50.1048 123.395C45.6509 118.941 42.5406 113.395 41.0346 107.386C39.8974 102.848 43.7924 99 48.4706 99C52.8564 99 56.2631 102.719 58.1273 106.689C59.0089 108.566 60.215 110.296 61.7097 111.79C65.1019 115.182 69.7027 117.088 74.5 117.088C79.2973 117.088 83.8981 115.182 87.2903 111.79C88.5423 110.538 89.5918 109.122 90.4178 107.591C92.7658 103.24 96.5961 99 101.54 99Z" fill="#C4C4C4"/>
<path d="M101.54 99C105.66 99 109.081 102.378 108.197 106.402C106.794 112.789 103.591 118.699 98.8952 123.395C92.4252 129.865 83.65 133.5 74.5 133.5C65.35 133.5 56.5748 129.865 50.1048 123.395C45.6509 118.941 42.5406 113.395 41.0346 107.386C39.8974 102.848 43.7924 99 48.4706 99C52.8564 99 56.2631 102.719 58.1273 106.689C59.0089 108.566 60.215 110.296 61.7097 111.79C65.1019 115.182 69.7027 117.088 74.5 117.088C79.2973 117.088 83.8981 115.182 87.2903 111.79C88.5423 110.538 89.5918 109.122 90.4178 107.591C92.7658 103.24 96.5961 99 101.54 99Z" fill="#221725"/>
</g>
<g filter="url(#filter2_i_397_3105)">
<path d="M198.54 99C202.66 99 206.081 102.378 205.197 106.402C203.794 112.789 200.591 118.699 195.895 123.395C189.425 129.865 180.65 133.5 171.5 133.5C162.35 133.5 153.575 129.865 147.105 123.395C142.651 118.941 139.541 113.395 138.035 107.386C136.897 102.848 140.792 99 145.471 99C149.856 99 153.263 102.719 155.127 106.689C156.009 108.566 157.215 110.296 158.71 111.79C162.102 115.182 166.703 117.088 171.5 117.088C176.297 117.088 180.898 115.182 184.29 111.79C185.542 110.538 186.592 109.122 187.418 107.591C189.766 103.24 193.596 99 198.54 99Z" fill="#C4C4C4"/>
<path d="M198.54 99C202.66 99 206.081 102.378 205.197 106.402C203.794 112.789 200.591 118.699 195.895 123.395C189.425 129.865 180.65 133.5 171.5 133.5C162.35 133.5 153.575 129.865 147.105 123.395C142.651 118.941 139.541 113.395 138.035 107.386C136.897 102.848 140.792 99 145.471 99C149.856 99 153.263 102.719 155.127 106.689C156.009 108.566 157.215 110.296 158.71 111.79C162.102 115.182 166.703 117.088 171.5 117.088C176.297 117.088 180.898 115.182 184.29 111.79C185.542 110.538 186.592 109.122 187.418 107.591C189.766 103.24 193.596 99 198.54 99Z" fill="#221725"/>
</g>
<g filter="url(#filter3_ii_397_3105)">
<path d="M67.5 169C67.5 169 86.5 155.5 123.5 155.5C160.5 155.5 176.5 169 176.5 169" stroke="url(#paint1_linear_397_3105)" stroke-width="16" stroke-linecap="round" stroke-linejoin="round"/>
</g>
<g filter="url(#filter4_dii_397_3105)">
<path d="M24 84.3444C24 88.0202 26.9928 91.0455 30.6361 90.5577C34.921 89.9839 39.1228 88.8555 43.1342 87.194C49.2004 84.6812 54.7124 80.9983 59.3553 76.3553C63.9983 71.7124 67.6812 66.2005 70.194 60.1342C71.8555 56.1228 72.9839 51.921 73.5577 47.6361C74.0455 43.9928 71.0202 41 67.3444 41C63.6685 41 60.7498 44.0038 60.0867 47.6192C59.6211 50.1571 58.8881 52.6449 57.8959 55.0402C56.0522 59.4914 53.3497 63.536 49.9428 66.9428C46.536 70.3497 42.4914 73.0522 38.0402 74.8959C35.6449 75.8881 33.1571 76.6211 30.6192 77.0867C27.0038 77.7498 24 80.6685 24 84.3444Z" fill="url(#paint2_linear_397_3105)"/>
</g>
<g filter="url(#filter5_dii_397_3105)">
<path d="M220 84.3444C220 88.0202 217.007 91.0455 213.364 90.5577C209.079 89.9839 204.877 88.8555 200.866 87.194C194.8 84.6812 189.288 80.9983 184.645 76.3553C180.002 71.7124 176.319 66.2005 173.806 60.1342C172.144 56.1228 171.016 51.921 170.442 47.6361C169.954 43.9928 172.98 41 176.656 41C180.331 41 183.25 44.0038 183.913 47.6192C184.379 50.1571 185.112 52.6449 186.104 55.0402C187.948 59.4914 190.65 63.536 194.057 66.9428C197.464 70.3497 201.509 73.0522 205.96 74.8959C208.355 75.8881 210.843 76.6211 213.381 77.0867C216.996 77.7498 220 80.6685 220 84.3444Z" fill="url(#paint3_linear_397_3105)"/>
</g>
</g>
<defs>
<filter id="filter0_iii_397_3105" x="-11" y="-24" width="278" height="326" filterUnits="userSpaceOnUse" color-interpolation-filters="sRGB">
<feFlood flood-opacity="0" result="BackgroundImageFix"/>
<feBlend mode="normal" in="SourceGraphic" in2="BackgroundImageFix" result="shape"/>
<feColorMatrix in="SourceAlpha" type="matrix" values="0 0 0 0 0 0 0 0 0 0 0 0 0 0 0 0 0 0 127 0" result="hardAlpha"/>
<feMorphology radius="8" operator="erode" in="SourceAlpha" result="effect1_innerShadow_397_3105"/>
<feOffset dx="21" dy="73"/>
<feGaussianBlur stdDeviation="24"/>
<feComposite in2="hardAlpha" operator="arithmetic" k2="-1" k3="1"/>
<feColorMatrix type="matrix" values="0 0 0 0 0.682806 0 0 0 0 0.0652778 0 0 0 0 0.783333 0 0 0 0.14 0"/>
<feBlend mode="normal" in2="shape" result="effect1_innerShadow_397_3105"/>
<feColorMatrix in="SourceAlpha" type="matrix" values="0 0 0 0 0 0 0 0 0 0 0 0 0 0 0 0 0 0 127 0" result="hardAlpha"/>
<feOffset dy="-24"/>
<feGaussianBlur stdDeviation="15.5"/>
<feComposite in2="hardAlpha" operator="arithmetic" k2="-1" k3="1"/>
<feColorMatrix type="matrix" values="0 0 0 0 0.943639 0 0 0 0 0.223611 0 0 0 0 0.958333 0 0 0 0.44 0"/>
<feBlend mode="normal" in2="effect1_innerShadow_397_3105" result="effect2_innerShadow_397_3105"/>
<feColorMatrix in="SourceAlpha" type="matrix" values="0 0 0 0 0 0 0 0 0 0 0 0 0 0 0 0 0 0 127 0" result="hardAlpha"/>
<feOffset dx="-11" dy="30"/>
<feGaussianBlur stdDeviation="15.5"/>
<feComposite in2="hardAlpha" operator="arithmetic" k2="-1" k3="1"/>
<feColorMatrix type="matrix" values="0 0 0 0 1 0 0 0 0 0.766722 0 0 0 0 0.693056 0 0 0 0.68 0"/>
<feBlend mode="normal" in2="effect2_innerShadow_397_3105" result="effect3_innerShadow_397_3105"/>
</filter>
<filter id="filter1_i_397_3105" x="40.8353" y="99" width="67.5018" height="34.5" filterUnits="userSpaceOnUse" color-interpolation-filters="sRGB">
<feFlood flood-opacity="0" result="BackgroundImageFix"/>
<feBlend mode="normal" in="SourceGraphic" in2="BackgroundImageFix" result="shape"/>
<feColorMatrix in="SourceAlpha" type="matrix" values="0 0 0 0 0 0 0 0 0 0 0 0 0 0 0 0 0 0 127 0" result="hardAlpha"/>
<feMorphology radius="26.45" operator="dilate" in="SourceAlpha" result="effect1_innerShadow_397_3105"/>
<feOffset dx="9.2" dy="-7"/>
<feGaussianBlur stdDeviation="10.35"/>
<feComposite in2="hardAlpha" operator="arithmetic" k2="-1" k3="1"/>
<feColorMatrix type="matrix" values="0 0 0 0 0.462111 0 0 0 0 0.203767 0 0 0 0 0.504167 0 0 0 0.35 0"/>
<feBlend mode="normal" in2="shape" result="effect1_innerShadow_397_3105"/>
</filter>
<filter id="filter2_i_397_3105" x="137.835" y="99" width="67.5018" height="34.5" filterUnits="userSpaceOnUse" color-interpolation-filters="sRGB">
<feFlood flood-opacity="0" result="BackgroundImageFix"/>
<feBlend mode="normal" in="SourceGraphic" in2="BackgroundImageFix" result="shape"/>
<feColorMatrix in="SourceAlpha" type="matrix" values="0 0 0 0 0 0 0 0 0 0 0 0 0 0 0 0 0 0 127 0" result="hardAlpha"/>
<feMorphology radius="26.45" operator="dilate" in="SourceAlpha" result="effect1_innerShadow_397_3105"/>
<feOffset dx="9.2" dy="-9"/>
<feGaussianBlur stdDeviation="10.35"/>
<feComposite in2="hardAlpha" operator="arithmetic" k2="-1" k3="1"/>
<feColorMatrix type="matrix" values="0 0 0 0 0.462111 0 0 0 0 0.203767 0 0 0 0 0.504167 0 0 0 0.35 0"/>
<feBlend mode="normal" in2="shape" result="effect1_innerShadow_397_3105"/>
</filter>
<filter id="filter3_ii_397_3105" x="59.4994" y="147.5" width="125.001" height="29.5007" filterUnits="userSpaceOnUse" color-interpolation-filters="sRGB">
<feFlood flood-opacity="0" result="BackgroundImageFix"/>
<feBlend mode="normal" in="SourceGraphic" in2="BackgroundImageFix" result="shape"/>
<feColorMatrix in="SourceAlpha" type="matrix" values="0 0 0 0 0 0 0 0 0 0 0 0 0 0 0 0 0 0 127 0" result="hardAlpha"/>
<feMorphology radius="26.45" operator="dilate" in="SourceAlpha" result="effect1_innerShadow_397_3105"/>
<feOffset dy="3"/>
<feGaussianBlur stdDeviation="7"/>
<feComposite in2="hardAlpha" operator="arithmetic" k2="-1" k3="1"/>
<feColorMatrix type="matrix" values="0 0 0 0 0.3625 0 0 0 0 0.3625 0 0 0 0 0.3625 0 0 0 0.97 0"/>
<feBlend mode="normal" in2="shape" result="effect1_innerShadow_397_3105"/>
<feColorMatrix in="SourceAlpha" type="matrix" values="0 0 0 0 0 0 0 0 0 0 0 0 0 0 0 0 0 0 127 0" result="hardAlpha"/>
<feMorphology radius="26.45" operator="dilate" in="SourceAlpha" result="effect2_innerShadow_397_3105"/>
<feOffset dx="9.2" dy="-9"/>
<feGaussianBlur stdDeviation="10.35"/>
<feComposite in2="hardAlpha" operator="arithmetic" k2="-1" k3="1"/>
<feColorMatrix type="matrix" values="0 0 0 0 0.462111 0 0 0 0 0.203767 0 0 0 0 0.504167 0 0 0 0.35 0"/>
<feBlend mode="normal" in2="effect1_innerShadow_397_3105" result="effect2_innerShadow_397_3105"/>
</filter>
<filter id="filter4_dii_397_3105" x="3" y="29" width="103.609" height="103.609" filterUnits="userSpaceOnUse" color-interpolation-filters="sRGB">
<feFlood flood-opacity="0" result="BackgroundImageFix"/>
<feColorMatrix in="SourceAlpha" type="matrix" values="0 0 0 0 0 0 0 0 0 0 0 0 0 0 0 0 0 0 127 0" result="hardAlpha"/>
<feOffset dx="6" dy="15"/>
<feGaussianBlur stdDeviation="13.5"/>
<feColorMatrix type="matrix" values="0 0 0 0 0.0313726 0 0 0 0 0.02 0 0 0 0 0.0352941 0 0 0 0.25 0"/>
<feBlend mode="normal" in2="BackgroundImageFix" result="effect1_dropShadow_397_3105"/>
<feBlend mode="normal" in="SourceGraphic" in2="effect1_dropShadow_397_3105" result="shape"/>
<feColorMatrix in="SourceAlpha" type="matrix" values="0 0 0 0 0 0 0 0 0 0 0 0 0 0 0 0 0 0 127 0" result="hardAlpha"/>
<feOffset dy="4.44444"/>
<feGaussianBlur stdDeviation="2.22222"/>
<feComposite in2="hardAlpha" operator="arithmetic" k2="-1" k3="1"/>
<feColorMatrix type="matrix" values="0 0 0 0 0.181961 0 0 0 0 0.116 0 0 0 0 0.204706 0 0 0 1 0"/>
<feBlend mode="normal" in2="shape" result="effect2_innerShadow_397_3105"/>
<feColorMatrix in="SourceAlpha" type="matrix" values="0 0 0 0 0 0 0 0 0 0 0 0 0 0 0 0 0 0 127 0" result="hardAlpha"/>
<feOffset dy="-4.44444"/>
<feGaussianBlur stdDeviation="2.22222"/>
<feComposite in2="hardAlpha" operator="arithmetic" k2="-1" k3="1"/>
<feColorMatrix type="matrix" values="0 0 0 0 0.12549 0 0 0 0 0.08 0 0 0 0 0.141176 0 0 0 1 0"/>
<feBlend mode="normal" in2="effect2_innerShadow_397_3105" result="effect3_innerShadow_397_3105"/>
</filter>
<filter id="filter5_dii_397_3105" x="149.391" y="29" width="103.609" height="103.609" filterUnits="userSpaceOnUse" color-interpolation-filters="sRGB">
<feFlood flood-opacity="0" result="BackgroundImageFix"/>
<feColorMatrix in="SourceAlpha" type="matrix" values="0 0 0 0 0 0 0 0 0 0 0 0 0 0 0 0 0 0 127 0" result="hardAlpha"/>
<feOffset dx="6" dy="15"/>
<feGaussianBlur stdDeviation="13.5"/>
<feColorMatrix type="matrix" values="0 0 0 0 0.0313726 0 0 0 0 0.02 0 0 0 0 0.0352941 0 0 0 0.25 0"/>
<feBlend mode="normal" in2="BackgroundImageFix" result="effect1_dropShadow_397_3105"/>
<feBlend mode="normal" in="SourceGraphic" in2="effect1_dropShadow_397_3105" result="shape"/>
<feColorMatrix in="SourceAlpha" type="matrix" values="0 0 0 0 0 0 0 0 0 0 0 0 0 0 0 0 0 0 127 0" result="hardAlpha"/>
<feOffset dy="4.44444"/>
<feGaussianBlur stdDeviation="2.22222"/>
<feComposite in2="hardAlpha" operator="arithmetic" k2="-1" k3="1"/>
<feColorMatrix type="matrix" values="0 0 0 0 0.181961 0 0 0 0 0.116 0 0 0 0 0.204706 0 0 0 1 0"/>
<feBlend mode="normal" in2="shape" result="effect2_innerShadow_397_3105"/>
<feColorMatrix in="SourceAlpha" type="matrix" values="0 0 0 0 0 0 0 0 0 0 0 0 0 0 0 0 0 0 127 0" result="hardAlpha"/>
<feOffset dy="-4.44444"/>
<feGaussianBlur stdDeviation="2.22222"/>
<feComposite in2="hardAlpha" operator="arithmetic" k2="-1" k3="1"/>
<feColorMatrix type="matrix" values="0 0 0 0 0.12549 0 0 0 0 0.08 0 0 0 0 0.141176 0 0 0 1 0"/>
<feBlend mode="normal" in2="effect2_innerShadow_397_3105" result="effect3_innerShadow_397_3105"/>
</filter>
<radialGradient id="paint0_radial_397_3105" cx="0" cy="0" r="1" gradientUnits="userSpaceOnUse" gradientTransform="translate(109 16) rotate(86.5167) scale(230.426)">
<stop offset="0.576389" stop-color="#FFBB0C"/>
<stop offset="1" stop-color="#FFC907"/>
</radialGradient>
<linearGradient id="paint1_linear_397_3105" x1="122" y1="169" x2="122" y2="170" gradientUnits="userSpaceOnUse">
<stop stop-color="#201721"/>
<stop offset="1" stop-color="#2B1F2C"/>
</linearGradient>
<linearGradient id="paint2_linear_397_3105" x1="24" y1="-9" x2="24" y2="91" gradientUnits="userSpaceOnUse">
<stop stop-color="#2D1D32"/>
<stop offset="1" stop-color="#221526"/>
</linearGradient>
<linearGradient id="paint3_linear_397_3105" x1="220" y1="-9" x2="220" y2="91" gradientUnits="userSpaceOnUse">
<stop stop-color="#2D1D32"/>
<stop offset="1" stop-color="#221526"/>
</linearGradient>
<clipPath id="clip0_397_3105">
<rect width="246" height="246" fill="white"/>
</clipPath>
</defs>
</svg>