<?xml version="1.0" encoding="iso-8859-1"?>
<!-- Uploaded to: SVG Repo, www.svgrepo.com, Generator: SVG Repo Mixer Tools -->
<svg height="800px" width="800px" version="1.1" id="Layer_1" xmlns="http://www.w3.org/2000/svg" xmlns:xlink="http://www.w3.org/1999/xlink" 
	 viewBox="0 0 511.988 511.988" xml:space="preserve">
<path style="fill:#434A54;" d="M354.335,228.401l-2.109-7.953H52.999l-2.109,7.953c-0.766,2.922-18.203,72.466,36.53,163.854
	l0.656,1.094l49.14,49.938l130.263-6.172l49.546-43.422l0.859-1.438C372.616,300.945,355.1,231.323,354.335,228.401z"/>
<path style="fill:#656D78;" d="M371.913,406.037l-1.516-0.438c-21.937-5.891-29.358-11.547-39.123-15.266
	c-34.641-13.201-43.656-22.717-45.953-27.201c-0.094-0.172-0.156-0.344-0.234-0.5l-0.281-40.234l-82.154-0.938l-82.154,0.938
	l-0.281,40.234c-0.078,0.156-0.141,0.328-0.234,0.5c-2.297,4.484-11.312,14-45.952,27.201c-9.765,3.719-17.187,9.375-39.125,15.266
	l-1.516,0.438C13.422,412.631,0,431.162,0,452.053v49.264h202.652h202.652v-49.264C405.304,431.162,391.882,412.631,371.913,406.037
	z"/>
<path style="fill:#CCD1D9;" d="M301.243,376.601c-10.625-6.141-14.531-10.734-15.922-13.469c-0.094-0.172-0.156-0.344-0.234-0.5
	l-0.281-40.234l-82.154-0.938l-82.154,0.938l-0.281,40.234c-0.078,0.156-0.141,0.328-0.234,0.5
	c-1.391,2.734-5.297,7.328-15.921,13.469l98.654,60.717L301.243,376.601z"/>
<path style="fill:#E6E9ED;" d="M316.649,244.526c0,74.076-70.608,142.246-113.998,142.246S88.654,318.601,88.654,244.526
	c0-74.077,51.03-122.935,113.998-122.935S316.649,170.449,316.649,244.526z"/>
<path style="fill:#656D78;" d="M354.788,230.104c-0.141-1.578-3.938-39.015-24.154-76.905
	c-27.422-51.374-71.671-78.529-127.982-78.529c-56.312,0-100.544,27.156-127.935,78.545c-20.203,37.89-23.984,75.311-24.125,76.889
	c-0.391,4,1.5,7.859,4.891,10.015c0.266,0.172,27.203,17.281,58.108,34.14c43.249,23.594,72.389,35.061,89.061,35.061
	s45.812-11.467,89.107-35.061c30.922-16.859,57.874-33.968,58.14-34.14C353.288,237.963,355.179,234.088,354.788,230.104z"/>
<polygon style="fill:#A85D5D;" points="347.367,501.316 511.988,91.107 454.787,68.155 280.962,501.316 "/>
<path style="fill:#FFCE54;" d="M378.507,37.546C326.29,17.765,285.29,10.671,253.354,10.671
	c-81.045,0-103.764,45.703-103.764,45.703s48.968,4.578,255.526,80.389l106.872-45.655L378.507,37.546z"/>
</svg>