<?xml version="1.0" encoding="iso-8859-1"?>
<!-- Uploaded to: SVG Repo, www.svgrepo.com, Generator: SVG Repo Mixer Tools -->
<svg height="800px" width="800px" version="1.1" id="Layer_1" xmlns="http://www.w3.org/2000/svg" xmlns:xlink="http://www.w3.org/1999/xlink" 
	 viewBox="0 0 512 512" xml:space="preserve">
<g>
	<path style="fill:#A59D8C;" d="M129.865,392.391c-0.851-4.583-5.254-7.616-9.837-6.758l-33.192,6.159l3.079,16.596l33.192-6.159
		C127.689,401.379,130.715,396.974,129.865,392.391z"/>
	<path style="fill:#A59D8C;" d="M109.338,281.753c-0.85-4.582-5.255-7.615-9.837-6.758l-33.193,6.159l3.079,16.596l33.193-6.159
		C107.162,290.741,110.188,286.335,109.338,281.753z"/>
	<path style="fill:#A59D8C;" d="M391.973,385.634c-4.586-0.851-8.986,2.175-9.837,6.758c-0.851,4.582,2.176,8.986,6.758,9.837
		l33.191,6.159l3.079-16.596L391.973,385.634z"/>
	<path style="fill:#A59D8C;" d="M412.5,274.995c-4.582-0.852-8.986,2.176-9.837,6.758c-0.851,4.582,2.176,8.986,6.758,9.837
		l33.192,6.159l3.079-16.596L412.5,274.995z"/>
</g>
<path style="fill:#C16C49;" d="M368.527,0l67.517,148.097L368.527,512H143.473L75.956,148.097L143.473,0H368.527z"/>
<path style="fill:#683520;" d="M346.821,33.758l54.092,118.649l-60.461,325.835H171.548l-60.461-325.835l54.092-118.649H346.821z"/>
<polygon style="fill:#C16C49;" points="320.433,152.407 320.433,186.165 272.879,186.165 272.879,410.725 239.121,410.725 
	239.121,186.165 191.567,186.165 191.567,152.407 239.121,152.407 239.121,101.275 272.879,101.275 272.879,152.407 "/>
<g>
	<path style="fill:#68615B;" d="M94.523,441.713c-3.988,0-7.535-2.838-8.289-6.901L53.391,257.796
		c-0.851-4.582,2.175-8.986,6.758-9.837c4.587-0.856,8.986,2.176,9.837,6.758l32.843,177.016c0.851,4.582-2.175,8.986-6.758,9.837
		C95.552,441.667,95.033,441.713,94.523,441.713z"/>
	<path style="fill:#68615B;" d="M417.478,441.713c-0.511,0-1.029-0.046-1.549-0.143c-4.582-0.851-7.609-5.255-6.758-9.837
		l32.843-177.016c0.851-4.582,5.253-7.606,9.837-6.758c4.582,0.851,7.609,5.255,6.758,9.837l-32.843,177.016
		C425.012,438.874,421.466,441.713,417.478,441.713z"/>
</g>
</svg>