<?xml version="1.0" encoding="iso-8859-1"?>
<!-- Uploaded to: SVG Repo, www.svgrepo.com, Generator: SVG Repo Mixer Tools -->
<svg version="1.1" id="Layer_1" xmlns="http://www.w3.org/2000/svg" xmlns:xlink="http://www.w3.org/1999/xlink" 
	 viewBox="0 0 512 512" xml:space="preserve">
<rect x="42.908" y="8.633" style="fill:#F2F2F2;" width="426.43" height="493.382"/>
<rect x="75.468" y="41.194" style="fill:#4288BC;" width="361.314" height="347.579"/>
<path style="fill:#F2F2F2;" d="M337.673,271.526c6.015,5.261,17.788,14.879,32.472,23.483c7.523,4.406,16.819,2.944,22.613-3.556
	c5.778-6.483,6.165-15.862,0.941-22.809c-9.475-12.601-20.176-24.279-31.809-34.711c-8.126-7.288-19.38-10.202-30.111-7.79
	l-35.531,7.984c-5.471-4.145-22.001-21.933-14.072-81.215c2.474-18.497-6.139-36.877-21.946-46.824l-49.169-30.946
	c-4.982-3.137-11.115-4.111-16.827-2.676c-5.711,1.437-10.655,5.198-13.56,10.316l-0.15,0.266
	c-5.451,9.602-3.116,21.488,5.551,28.261c7.907,6.18,19.583,15.605,30.313,25.411c4.261,3.894,6.49,9.436,6.121,15.206
	c-0.325,5.047-0.973,9.899-1.938,14.502c-4.549-12.043-10.862-26.012-18.458-35.741c-2.429-3.109-5.35-5.847-8.683-8.139
	l-43.849-30.147c-5.107-3.513-11.501-4.731-17.546-3.339c-6.043,1.39-11.263,5.28-14.326,10.676l-0.143,0.253
	c-5.004,8.814-3.508,19.954,3.639,27.086c8.484,8.468,22.7,22.679,32.182,32.157c5.616,5.615,10.262,12.076,13.807,19.207
	c11.423,22.967,32.397,63.745,49.815,89.881c-1.165-0.279-2.295-0.568-3.382-0.864c-6.226-1.7-11.527-5.925-14.546-11.59
	c-3.292-6.179-6.997-12.212-11.008-17.928c-4.647-6.621-12.816-9.028-20.333-5.99c-7.504,3.035-11.701,10.436-10.44,18.416
	c1.016,6.446,2.436,12.598,4.216,18.283c6.347,20.262,22.212,36.758,42.442,44.129c18.043,6.575,45.362,12.388,73.021,2.736
	c1.535-0.537,2.769,0.002,3.37,0.373c0.609,0.376,1.665,1.253,1.88,2.905l1.416,10.865c1.62,12.426,9.908,22.897,21.621,27.324
	l0.594,0.226c4.09,1.546,8.317,2.309,12.511,2.309c6.632,0,13.181-1.91,18.971-5.655c9.434-6.103,15.235-16.036,15.92-27.251
	l0.246-4.018c0.847-13.857-6.582-26.916-18.928-33.27l-10.456-5.381c-0.769-0.396-1-1.046-1.058-1.521
	c-0.057-0.465,0.01-1.138,0.645-1.691C328.714,276.37,333.522,273.203,337.673,271.526z M304.594,284.669
	c0.825,6.782,4.942,12.697,11.016,15.824l10.456,5.381c5.784,2.977,9.266,9.095,8.868,15.585l-0.246,4.021
	c-0.32,5.251-3.036,9.9-7.452,12.758c-4.437,2.87-9.831,3.439-14.783,1.567l-0.594-0.226c-5.287-1.998-9.023-6.721-9.754-12.325
	l-1.417-10.866c-0.886-6.79-4.736-12.745-10.565-16.34c-3.618-2.231-7.705-3.37-11.83-3.37c-2.5,0-5.013,0.418-7.441,1.266
	c-22.48,7.845-45.316,2.89-60.518-2.65c-14.817-5.4-26.427-17.439-31.052-32.206c-0.798-2.544-1.51-5.209-2.135-7.973
	c1.951,3.103,3.794,6.282,5.512,9.507c5.417,10.169,14.919,17.748,26.069,20.793c3.462,0.945,7.251,1.809,11.26,2.568
	c6.431,1.22,12.853-1.547,16.386-7.041c3.539-5.503,3.385-12.512-0.393-17.86c-17.989-25.458-42.439-73.468-52.119-92.928
	c-4.444-8.937-10.269-17.04-17.313-24.081c-9.484-9.482-23.704-23.696-32.193-32.168c-1.253-1.251-1.494-3.15-0.596-4.731
	l0.143-0.254c0.676-1.189,1.736-1.588,2.309-1.72c0.572-0.132,1.7-0.237,2.826,0.538l43.85,30.147
	c1.767,1.215,3.3,2.648,4.559,4.258c6.142,7.867,12.498,21.102,18.383,38.278c2.223,6.492,8.295,10.813,15.15,10.813
	c0.073,0,0.146,0,0.22-0.001c6.935-0.093,12.983-4.596,15.052-11.204c2.592-8.285,4.217-17.339,4.833-26.909
	c0.736-11.431-3.689-22.416-12.137-30.138c-11.166-10.205-23.241-19.955-31.408-26.337c-1.336-1.045-1.684-2.9-0.828-4.408
	l0.15-0.264c0.562-0.99,1.441-1.338,1.915-1.457c0.473-0.119,1.412-0.227,2.374,0.378l49.169,30.946
	c9.658,6.079,14.923,17.306,13.413,28.605c-11.483,85.837,23.943,100.884,28.02,102.317c1.648,0.578,3.426,0.684,5.127,0.3
	l38.983-8.76c4.863-1.092,9.952,0.21,13.604,3.487c9.97,8.94,19.201,18.876,27.508,29.619
	c-12.575-7.667-22.541-15.918-27.533-20.318c-4.811-4.24-11.512-5.505-17.489-3.303c-6.503,2.397-13.389,6.744-20.469,12.918
	C306.346,271.184,303.77,277.899,304.594,284.669z"/>
<path d="M469.214,0H42.785c-5.141,0-9.306,4.167-9.306,9.306v376.068c0,5.139,4.165,9.306,9.306,9.306s9.306-4.167,9.306-9.306
	V18.612h407.818v474.777H52.091v-76.995c0-5.139-4.165-9.306-9.306-9.306s-9.306,4.167-9.306,9.306v86.301
	c0,5.139,4.165,9.306,9.306,9.306h426.43c5.141,0,9.306-4.167,9.306-9.306V9.306C478.52,4.167,474.354,0,469.214,0z"/>
<path d="M436.653,104.338c5.141,0,9.306-4.167,9.306-9.306V41.865c0-5.139-4.165-9.306-9.306-9.306H75.346
	c-5.141,0-9.306,4.167-9.306,9.306v347.582c0,5.139,4.165,9.306,9.306,9.306h361.308c5.141,0,9.306-4.167,9.306-9.306V126.052
	c0-5.139-4.165-9.306-9.306-9.306s-9.306,4.167-9.306,9.306v254.091H84.651V51.172h342.696v43.861
	C427.348,100.172,431.514,104.338,436.653,104.338z"/>
<path d="M75.346,457.846h78.866c5.141,0,9.306-4.167,9.306-9.306c0-5.139-4.165-9.306-9.306-9.306H75.346
	c-5.141,0-9.306,4.167-9.306,9.306C66.04,453.68,70.205,457.846,75.346,457.846z"/>
</svg>